<svg aria-hidden="true" style="position: absolute; width: 0; height: 0; overflow: hidden;" version="1.1" xmlns="http://www.w3.org/2000/svg" xmlns:xlink="http://www.w3.org/1999/xlink">
<defs>
<symbol id="icon-linkedin-logo" viewBox="0 0 32 32">
<title>linkedin-logo-1</title>
<path d="M29.637 0h-27.272c-1.306 0-2.364 1.026-2.364 2.293v27.414c0 1.267 1.059 2.294 2.364 2.294h27.272c1.306 0 2.363-1.028 2.363-2.294v-27.414c0-1.266-1.057-2.293-2.363-2.293zM9.702 26.786h-4.835v-14.448h4.835v14.448zM7.285 10.365h-0.032c-1.621 0-2.672-1.109-2.672-2.497 0-1.416 1.082-2.495 2.735-2.495s2.671 1.078 2.703 2.495c0 1.388-1.049 2.497-2.733 2.497zM27.13 26.786h-4.833v-7.73c0-1.942-0.7-3.268-2.448-3.268-1.337 0-2.131 0.894-2.479 1.757-0.129 0.308-0.161 0.74-0.161 1.17v8.070h-4.832c0 0 0.063-13.093 0-14.448h4.833v2.048c0.642-0.984 1.788-2.388 4.355-2.388 3.181 0 5.567 2.064 5.567 6.503v8.284zM17.177 14.432c0.008-0.014 0.020-0.030 0.031-0.046v0.046h-0.031z"></path>
</symbol>
<symbol id="icon-mail" viewBox="0 0 20 20">
<title>mail</title>
<path d="M1.574 5.286c0.488 0.262 7.248 3.894 7.5 4.029s0.578 0.199 0.906 0.199c0.328 0 0.654-0.064 0.906-0.199s7.012-3.767 7.5-4.029c0.489-0.263 0.951-1.286 0.054-1.286h-16.919c-0.897 0-0.435 1.023 0.053 1.286zM18.613 7.489c-0.555 0.289-7.387 3.849-7.727 4.027s-0.578 0.199-0.906 0.199-0.566-0.021-0.906-0.199-7.133-3.739-7.688-4.028c-0.39-0.204-0.386 0.035-0.386 0.219s0 7.293 0 7.293c0 0.42 0.566 1 1 1h16c0.434 0 1-0.58 1-1 0 0 0-7.108 0-7.292s0.004-0.423-0.387-0.219z"></path>
</symbol>
</defs>
</svg>
